<?xml version="1.0" encoding="utf-8"?>
<!-- Generator: Adobe Illustrator 27.6.1, SVG Export Plug-In . SVG Version: 6.00 Build 0)  -->
<svg version="1.1" id="Ebene_1" xmlns="http://www.w3.org/2000/svg" xmlns:xlink="http://www.w3.org/1999/xlink" x="0px" y="0px"
	 viewBox="0 0 208.2 147.1" style="enable-background:new 0 0 208.2 147.1;" xml:space="preserve">
<style type="text/css">
	.st0{fill:url(#SVGID_1_);}
</style>
<linearGradient id="SVGID_1_" gradientUnits="userSpaceOnUse" x1="-6.9348" y1="12.8039" x2="198.3128" y2="156.52" gradientTransform="matrix(1 0 0 -1 0 150)">
	<stop  offset="0" style="stop-color:#00FFFF"/>
	<stop  offset="0.5" style="stop-color:#009EFF"/>
	<stop  offset="1" style="stop-color:#2F61E6"/>
</linearGradient>
<path class="st0" d="M116.6,37.1c-13,31.3-25.3,62.7-37.8,94.1c-4.9,12.2-9.7,15.4-22.6,15.5L5.9,147L0,147.1
	c6.5-16.6,12.5-32,18.6-47.5C29.9,71,41.1,42.3,52.4,13.7c4.2-10.6,8-13.3,19.4-13.3L135.6,0C123.9,10.1,121.9,24.5,116.6,37.1z
	 M193.6,0.3c-12.8-0.1-25.5,0-38.3,0c-11,0-15.6,3.1-19.7,13.2c-10,24.8-20.1,49.6-30.1,74.4c-2.2,5.4-4.4,10.7-6.6,16.2
	c0.6,0.2,1.2,0.3,1.9,0.4c19.5,0,39.1,0.1,58.6,0c8.3-0.1,13.7-4.8,16.8-12.2c10.1-24.5,20.3-48.9,30.2-73.3
	C211.1,7.2,206.4,0.4,193.6,0.3z"/>
</svg>
